<?xml version="1.0" encoding="UTF-8" standalone="no"?>
<svg
   xmlns:dc="http://purl.org/dc/elements/1.1/"
   xmlns:cc="http://creativecommons.org/ns#"
   xmlns:rdf="http://www.w3.org/1999/02/22-rdf-syntax-ns#"
   xmlns:svg="http://www.w3.org/2000/svg"
   xmlns="http://www.w3.org/2000/svg"
   xmlns:sodipodi="http://sodipodi.sourceforge.net/DTD/sodipodi-0.dtd"
   xmlns:inkscape="http://www.inkscape.org/namespaces/inkscape"
   version="1.1"
   width="1279.9827"
   height="101"
   id="svg2"
   inkscape:version="0.91 r13725"
   sodipodi:docname="chess-pieces.svg">
  <metadata
     id="metadata20">
    <rdf:RDF>
      <cc:Work
         rdf:about="">
        <dc:format>image/svg+xml</dc:format>
        <dc:type
           rdf:resource="http://purl.org/dc/dcmitype/StillImage" />
        <dc:title></dc:title>
      </cc:Work>
    </rdf:RDF>
  </metadata>
  <defs
     id="defs18" />
  <sodipodi:namedview
     pagecolor="#ffffff"
     bordercolor="#666666"
     borderopacity="1"
     objecttolerance="10"
     gridtolerance="10"
     guidetolerance="10"
     inkscape:pageopacity="0"
     inkscape:pageshadow="0"
     inkscape:window-width="1920"
     inkscape:window-height="1017"
     id="namedview16"
     showgrid="false"
     inkscape:zoom="1"
     inkscape:cx="659.98119"
     inkscape:cy="22.362103"
     inkscape:window-x="1912"
     inkscape:window-y="-8"
     inkscape:window-maximized="1"
     inkscape:current-layer="svg2"
     inkscape:showpageshadow="false"
     fit-margin-top="10"
     fit-margin-left="10"
     fit-margin-right="10"
     fit-margin-bottom="10" />
  <g
     style="opacity:1;fill:none;fill-opacity:1;fill-rule:evenodd;stroke:#000000;stroke-width:0.62934864;stroke-linecap:round;stroke-linejoin:round;stroke-miterlimit:4;stroke-dasharray:none;stroke-opacity:1"
     id="g4"
     transform="matrix(2.3806302,0,0,2.3862061,1178.3131,-0.81152377)"
     inkscape:export-xdpi="90"
     inkscape:export-ydpi="90">
    <g
       style="fill:#000000;stroke:#000000;stroke-width:0.62934864;stroke-linecap:butt"
       id="g6">
      <path
         d="m 9,36 c 3.39,-0.97 10.11,0.43 13.5,-2 3.39,2.43 10.11,1.03 13.5,2 0,0 1.65,0.54 3,2 -0.68,0.97 -1.65,0.99 -3,0.5 -3.39,-0.97 -10.11,0.46 -13.5,-1 C 19.11,38.96 12.39,37.53 9,38.5 7.646,38.99 6.677,38.97 6,38 7.354,36.06 9,36 9,36 Z"
         id="path8"
         inkscape:connector-curvature="0"
         style="stroke-width:0.62934864" />
      <path
         d="m 15,32 c 2.5,2.5 12.5,2.5 15,0 0.5,-1.5 0,-2 0,-2 0,-2.5 -2.5,-4 -2.5,-4 5.5,-1.5 6,-11.5 -5,-15.5 -11,4 -10.5,14 -5,15.5 0,0 -2.5,1.5 -2.5,4 0,0 -0.5,0.5 0,2 z"
         id="path10"
         inkscape:connector-curvature="0"
         style="stroke-width:0.62934864" />
      <path
         d="m 25,8 a 2.5,2.5 0 1 1 -5,0 2.5,2.5 0 1 1 5,0 z"
         id="path12"
         inkscape:connector-curvature="0"
         style="stroke-width:0.62934864" />
    </g>
    <path
       d="m 17.5,26 10,0 M 15,30 30,30 m -7.5,-14.5 0,5 M 20,18 l 5,0"
       style="fill:none;stroke:#ffffff;stroke-width:0.62934864;stroke-linejoin:miter"
       id="path14"
       inkscape:connector-curvature="0" />
  </g>
  <g
     id="g3350"
     style="opacity:1;fill-opacity:1;fill-rule:evenodd;stroke:#000000;stroke-width:0.56662118;stroke-linecap:round;stroke-linejoin:round;stroke-miterlimit:4;stroke-dasharray:none;stroke-opacity:1"
     transform="matrix(2.6446207,0,0,2.6499245,90.042479,-7.7729583)"
     inkscape:export-xdpi="90"
     inkscape:export-ydpi="90">
    <path
       id="path3352"
       style="stroke-width:0.56662118;stroke-linecap:butt"
       d="m 9,39 27,0 0,-3 -27,0 0,3 z"
       inkscape:connector-curvature="0" />
    <path
       id="path3354"
       style="stroke-width:0.56662118;stroke-linecap:butt"
       d="m 12.5,32 1.5,-2.5 17,0 1.5,2.5 -20,0 z"
       inkscape:connector-curvature="0" />
    <path
       id="path3356"
       style="stroke-width:0.56662118;stroke-linecap:butt"
       d="m 12,36 0,-4 21,0 0,4 -21,0 z"
       inkscape:connector-curvature="0" />
    <path
       id="path3358"
       style="stroke-width:0.56662118;stroke-linecap:butt;stroke-linejoin:miter"
       d="m 14,29.5 0,-13 17,0 0,13 -17,0 z"
       inkscape:connector-curvature="0" />
    <path
       id="path3360"
       style="stroke-width:0.56662118;stroke-linecap:butt"
       d="m 14,16.5 -3,-2.5 23,0 -3,2.5 -17,0 z"
       inkscape:connector-curvature="0" />
    <path
       id="path3362"
       style="stroke-width:0.56662118;stroke-linecap:butt"
       d="m 11,14 0,-5 4,0 0,2 5,0 0,-2 5,0 0,2 5,0 0,-2 4,0 0,5 -23,0 z"
       inkscape:connector-curvature="0" />
    <path
       id="path3364"
       style="fill:none;stroke:#ffffff;stroke-width:0.37774745;stroke-linejoin:miter"
       d="m 12,35.5 21,0 0,0"
       inkscape:connector-curvature="0" />
    <path
       id="path3366"
       style="fill:none;stroke:#ffffff;stroke-width:0.37774745;stroke-linejoin:miter"
       d="m 13,31.5 19,0"
       inkscape:connector-curvature="0" />
    <path
       id="path3368"
       style="fill:none;stroke:#ffffff;stroke-width:0.37774745;stroke-linejoin:miter"
       d="m 14,29.5 17,0"
       inkscape:connector-curvature="0" />
    <path
       id="path3370"
       style="fill:none;stroke:#ffffff;stroke-width:0.37774745;stroke-linejoin:miter"
       d="m 14,16.5 17,0"
       inkscape:connector-curvature="0" />
    <path
       id="path3372"
       style="fill:none;stroke:#ffffff;stroke-width:0.37774745;stroke-linejoin:miter"
       d="m 11,14 23,0"
       inkscape:connector-curvature="0" />
  </g>
  <g
     id="g3394"
     style="opacity:1;fill:#ffffff;fill-opacity:1;fill-rule:evenodd;stroke:#000000;stroke-width:0.56662118;stroke-linecap:round;stroke-linejoin:round;stroke-miterlimit:4;stroke-dasharray:none;stroke-opacity:1"
     transform="matrix(2.6446207,0,0,2.6499245,-18.190601,-7.7729583)"
     inkscape:export-xdpi="90"
     inkscape:export-ydpi="90">
    <path
       id="path3396"
       style="stroke-width:0.56662118;stroke-linecap:butt"
       d="m 9,39 27,0 0,-3 -27,0 0,3 z"
       inkscape:connector-curvature="0" />
    <path
       id="path3398"
       style="stroke-width:0.56662118;stroke-linecap:butt"
       d="m 12,36 0,-4 21,0 0,4 -21,0 z"
       inkscape:connector-curvature="0" />
    <path
       id="path3400"
       style="stroke-width:0.56662118;stroke-linecap:butt"
       d="m 11,14 0,-5 4,0 0,2 5,0 0,-2 5,0 0,2 5,0 0,-2 4,0 0,5"
       inkscape:connector-curvature="0" />
    <path
       id="path3402"
       d="m 34,14 -3,3 -17,0 -3,-3"
       inkscape:connector-curvature="0"
       style="stroke-width:0.56662118" />
    <path
       id="path3404"
       style="stroke-width:0.56662118;stroke-linecap:butt;stroke-linejoin:miter"
       d="m 31,17 0,12.5 -17,0 0,-12.5"
       inkscape:connector-curvature="0" />
    <path
       id="path3406"
       d="m 31,29.5 1.5,2.5 -20,0 1.5,-2.5"
       inkscape:connector-curvature="0"
       style="stroke-width:0.56662118" />
    <path
       id="path3408"
       style="fill:none;stroke:#000000;stroke-width:0.56662118;stroke-linejoin:miter"
       d="m 11,14 23,0"
       inkscape:connector-curvature="0" />
  </g>
  <g
     id="g3426"
     style="opacity:1;fill:none;fill-opacity:1;fill-rule:evenodd;stroke:#000000;stroke-width:0.62934864;stroke-linecap:round;stroke-linejoin:round;stroke-miterlimit:4;stroke-dasharray:none;stroke-opacity:1"
     transform="matrix(2.3806302,0,0,2.3862061,1070.0799,-0.81152377)"
     inkscape:export-xdpi="90"
     inkscape:export-ydpi="90">
    <g
       id="g3428"
       style="fill:#ffffff;stroke:#000000;stroke-width:0.62934864;stroke-linecap:butt">
      <path
         id="path3430"
         d="m 9,36 c 3.39,-0.97 10.11,0.43 13.5,-2 3.39,2.43 10.11,1.03 13.5,2 0,0 1.65,0.54 3,2 -0.68,0.97 -1.65,0.99 -3,0.5 -3.39,-0.97 -10.11,0.46 -13.5,-1 C 19.11,38.96 12.39,37.53 9,38.5 7.646,38.99 6.677,38.97 6,38 7.354,36.06 9,36 9,36 Z"
         inkscape:connector-curvature="0"
         style="stroke-width:0.62934864" />
      <path
         id="path3432"
         d="m 15,32 c 2.5,2.5 12.5,2.5 15,0 0.5,-1.5 0,-2 0,-2 0,-2.5 -2.5,-4 -2.5,-4 5.5,-1.5 6,-11.5 -5,-15.5 -11,4 -10.5,14 -5,15.5 0,0 -2.5,1.5 -2.5,4 0,0 -0.5,0.5 0,2 z"
         inkscape:connector-curvature="0"
         style="stroke-width:0.62934864" />
      <path
         id="path3434"
         d="m 25,8 a 2.5,2.5 0 1 1 -5,0 2.5,2.5 0 1 1 5,0 z"
         inkscape:connector-curvature="0"
         style="stroke-width:0.62934864" />
    </g>
    <path
       id="path3436"
       style="fill:none;stroke:#000000;stroke-width:0.62934864;stroke-linejoin:miter"
       d="m 17.5,26 10,0 M 15,30 30,30 m -7.5,-14.5 0,5 M 20,18 l 5,0"
       inkscape:connector-curvature="0" />
  </g>
  <g
     id="g3452"
     style="fill:none;fill-opacity:1;fill-rule:evenodd;stroke:#000000;stroke-width:0.63528109;stroke-linecap:round;stroke-linejoin:round;stroke-miterlimit:4;stroke-dasharray:none;stroke-opacity:1"
     transform="matrix(2.358386,0,0,2.3639363,745.95524,-2.2152471)"
     inkscape:export-xdpi="90"
     inkscape:export-ydpi="90">
    <path
       id="path6570"
       style="fill:none;stroke:#000000;stroke-width:0.63528109;stroke-linejoin:miter"
       d="M 22.5,11.63 22.5,6"
       inkscape:connector-curvature="0" />
    <path
       id="path3455"
       style="fill:#000000;fill-opacity:1;stroke-width:0.63528109;stroke-linecap:butt;stroke-linejoin:miter"
       d="m 22.5,25 c 0,0 4.5,-7.5 3,-10.5 0,0 -1,-2.5 -3,-2.5 -2,0 -3,2.5 -3,2.5 -1.5,3 3,10.5 3,10.5"
       inkscape:connector-curvature="0" />
    <path
       id="path3457"
       style="fill:#000000;stroke:#000000;stroke-width:0.63528109"
       d="m 11.5,37 c 5.5,3.5 15.5,3.5 21,0 l 0,-7 c 0,0 9,-4.5 6,-10.5 -4,-6.5 -13.5,-3.5 -16,4 l 0,3.5 0,-3.5 C 19,16 9.5,13 6.5,19.5 c -3,6 5,10 5,10 l 0,7.5 z"
       inkscape:connector-curvature="0" />
    <path
       id="path3459"
       style="fill:none;stroke:#000000;stroke-width:0.63528109;stroke-linejoin:miter"
       d="m 20,8 5,0"
       inkscape:connector-curvature="0" />
    <path
       id="path3461"
       style="fill:none;stroke:#ffffff;stroke-width:0.63528109"
       d="m 32,29.5 c 0,0 8.5,-4 6.03,-9.65 C 34.15,14 25,18 22.5,24.5 l 0.01,2.1 -0.01,-2.1 C 20,18 9.906,14 6.997,19.85 c -2.497,5.65 4.853,9 4.853,9"
       inkscape:connector-curvature="0" />
    <path
       id="path3463"
       style="fill:none;stroke:#ffffff;stroke-width:0.63528109"
       d="m 11.5,30 c 5.5,-3 15.5,-3 21,0 m -21,3.5 c 5.5,-3 15.5,-3 21,0 m -21,3.5 c 5.5,-3 15.5,-3 21,0"
       inkscape:connector-curvature="0" />
  </g>
  <g
     id="g3480"
     style="fill:none;fill-opacity:1;fill-rule:evenodd;stroke:#000000;stroke-width:0.63528109;stroke-linecap:round;stroke-linejoin:round;stroke-miterlimit:4;stroke-dasharray:none;stroke-opacity:1"
     transform="matrix(2.358386,0,0,2.3639363,637.72215,-2.2152471)"
     inkscape:export-xdpi="90"
     inkscape:export-ydpi="90">
    <path
       id="path3482"
       style="fill:none;stroke:#000000;stroke-width:0.63528109;stroke-linejoin:miter"
       d="M 22.5,11.63 22.5,6"
       inkscape:connector-curvature="0" />
    <path
       id="path3484"
       style="fill:none;stroke:#000000;stroke-width:0.63528109;stroke-linejoin:miter"
       d="m 20,8 5,0"
       inkscape:connector-curvature="0" />
    <path
       id="path3486"
       style="fill:#ffffff;stroke:#000000;stroke-width:0.63528109;stroke-linecap:butt;stroke-linejoin:miter"
       d="m 22.5,25 c 0,0 4.5,-7.5 3,-10.5 0,0 -1,-2.5 -3,-2.5 -2,0 -3,2.5 -3,2.5 -1.5,3 3,10.5 3,10.5"
       inkscape:connector-curvature="0" />
    <path
       id="path3488"
       style="fill:#ffffff;stroke:#000000;stroke-width:0.63528109"
       d="m 11.5,37 c 5.5,3.5 15.5,3.5 21,0 l 0,-7 c 0,0 9,-4.5 6,-10.5 -4,-6.5 -13.5,-3.5 -16,4 l 0,3.5 0,-3.5 C 19,16 9.5,13 6.5,19.5 c -3,6 5,10 5,10 l 0,7.5 z"
       inkscape:connector-curvature="0" />
    <path
       id="path3490"
       style="fill:none;stroke:#000000;stroke-width:0.63528109"
       d="M 11.5,30 C 17,27 27,27 32.5,30"
       inkscape:connector-curvature="0" />
    <path
       id="path3492"
       style="fill:none;stroke:#000000;stroke-width:0.63528109"
       d="m 11.5,33.5 c 5.5,-3 15.5,-3 21,0"
       inkscape:connector-curvature="0" />
    <path
       id="path3494"
       style="fill:none;stroke:#000000;stroke-width:0.63528109"
       d="M 11.5,37 C 17,34 27,34 32.5,37"
       inkscape:connector-curvature="0" />
  </g>
  <g
     id="g3512"
     style="opacity:1;fill:none;fill-opacity:1;fill-rule:evenodd;stroke:#000000;stroke-width:0.60794449;stroke-linecap:round;stroke-linejoin:round;stroke-miterlimit:4;stroke-dasharray:none;stroke-opacity:1"
     transform="matrix(2.4654706,0,0,2.4691918,961.13472,-3.2854833)"
     inkscape:export-xdpi="90"
     inkscape:export-ydpi="90">
    <path
       id="path3514"
       style="fill:#000000;stroke:#000000;stroke-width:0.60794449"
       d="m 22,10 c 10.5,1 16.5,8 16,29 l -23,0 c 0,-9 10,-6.5 8,-21"
       inkscape:connector-curvature="0" />
    <path
       id="path3516"
       style="fill:#000000;stroke:#000000;stroke-width:0.60794449"
       d="m 24,18 c 0.38,2.91 -5.55,7.37 -8,9 -3,2 -2.82,4.34 -5,4 -1.042,-0.94 1.41,-3.04 0,-3 -1,0 0.19,1.23 -1,2 -1,0 -4.003,1 -4,-4 0,-2 6,-12 6,-12 0,0 1.89,-1.9 2,-3.5 -0.73,-0.994 -0.5,-2 -0.5,-3 1,-1 3,2.5 3,2.5 l 2,0 c 0,0 0.78,-1.992 2.5,-3 1,0 1,3 1,3"
       inkscape:connector-curvature="0" />
    <path
       id="path3518"
       style="fill:#ffffff;stroke:#ffffff;stroke-width:0.60794449"
       d="m 9.5,25.5 a 0.5,0.5 0 1 1 -1,0 0.5,0.5 0 1 1 1,0 z"
       inkscape:connector-curvature="0" />
    <path
       id="path3520"
       style="fill:#ffffff;stroke:#ffffff;stroke-width:0.60794449"
       transform="matrix(0.866,0.5,-0.5,0.866,9.693,-5.173)"
       d="m 15,15.5 a 0.5,1.5 0 1 1 -1,0 0.5,1.5 0 1 1 1,0 z"
       inkscape:connector-curvature="0" />
    <path
       id="path3522"
       style="fill:#ffffff;stroke:none"
       d="M 24.55,10.4 24.1,11.85 24.6,12 c 3.15,1 5.65,2.49 7.9,6.75 2.25,4.26 3.25,10.31 2.75,20.25 l -0.05,0.5 2.25,0 L 37.5,39 C 38,28.94 36.62,22.15 34.25,17.66 31.88,13.17 28.46,11.02 25.06,10.5 l -0.51,-0.1 z"
       inkscape:connector-curvature="0" />
  </g>
  <g
     id="g3538"
     style="opacity:1;fill:none;fill-opacity:1;fill-rule:evenodd;stroke:#000000;stroke-width:0.60449672;stroke-linecap:round;stroke-linejoin:round;stroke-miterlimit:4;stroke-dasharray:none;stroke-opacity:1"
     transform="matrix(2.4784901,0,0,2.4843191,852.61502,-3.58345)"
     inkscape:export-xdpi="90"
     inkscape:export-ydpi="90">
    <path
       id="path3540"
       style="fill:#ffffff;stroke:#000000;stroke-width:0.60449672"
       d="m 22,10 c 10.5,1 16.5,8 16,29 l -23,0 c 0,-9 10,-6.5 8,-21"
       inkscape:connector-curvature="0" />
    <path
       id="path3542"
       style="fill:#ffffff;stroke:#000000;stroke-width:0.60449672"
       d="m 24,18 c 0.38,2.91 -5.55,7.37 -8,9 -3,2 -2.82,4.34 -5,4 -1.042,-0.94 1.41,-3.04 0,-3 -1,0 0.19,1.23 -1,2 -1,0 -4.003,1 -4,-4 0,-2 6,-12 6,-12 0,0 1.89,-1.9 2,-3.5 -0.73,-0.994 -0.5,-2 -0.5,-3 1,-1 3,2.5 3,2.5 l 2,0 c 0,0 0.78,-1.992 2.5,-3 1,0 1,3 1,3"
       inkscape:connector-curvature="0" />
    <path
       id="path3544"
       style="fill:#000000;stroke:#000000;stroke-width:0.60449672"
       d="m 9.5,25.5 a 0.5,0.5 0 1 1 -1,0 0.5,0.5 0 1 1 1,0 z"
       inkscape:connector-curvature="0" />
    <path
       id="path3546"
       style="fill:#000000;stroke:#000000;stroke-width:0.60449672"
       transform="matrix(0.866,0.5,-0.5,0.866,9.693,-5.173)"
       d="m 15,15.5 a 0.5,1.5 0 1 1 -1,0 0.5,1.5 0 1 1 1,0 z"
       inkscape:connector-curvature="0" />
  </g>
  <g
     id="g3563"
     transform="matrix(1.9289644,0,0,1.9429316,590.98613,11.191933)"
     inkscape:export-xdpi="90"
     inkscape:export-ydpi="90">
    <path
       id="path3565"
       stroke-miterlimit="4"
       d="m -4.4098156,2.266749 c -2.925013,0 -5.294179,2.3756055 -5.294179,5.3085679 0,1.1811352 0.383824,2.2694342 1.032408,3.1586411 -2.5809344,1.486399 -4.3412274,4.260104 -4.3412274,7.458496 0,2.694119 1.244174,5.096225 3.1897224,6.675546 -3.9710594,1.407407 -9.8082074,7.365744 -9.8082074,17.876709 l 30.44195,0 c 0,-10.510965 -5.8368106,-16.470151 -9.8073606,-17.876709 1.945632,-1.579321 3.189721,-3.981427 3.189721,-6.675546 0,-3.198392 -1.760292,-5.972097 -4.34122502,-7.458496 0.648007,-0.8892919 1.031729,-1.9777599 1.031729,-3.1588961 0,-2.9329622 -2.36916598,-5.3085678 -5.29417798,-5.3085678 z"
       inkscape:connector-curvature="0"
       style="fill:#000000;fill-rule:nonzero;stroke:#000000;stroke-width:1.21065509;stroke-linecap:round;stroke-linejoin:miter;stroke-miterlimit:4;stroke-dasharray:none" />
  </g>
  <path
     id="path3577"
     style="opacity:1;fill:#ffffff;fill-opacity:1;fill-rule:nonzero;stroke:#000000;stroke-width:1.50000012;stroke-linecap:round;stroke-linejoin:miter;stroke-miterlimit:4;stroke-dasharray:none;stroke-opacity:1"
     d="m 474.2457,15.508069 c -5.75215,0 -10.41114,4.665719 -10.41114,10.426187 0,2.319826 0.75481,4.457194 2.03016,6.203581 -5.07542,2.919332 -8.53713,8.367014 -8.53713,14.648792 0,5.291289 2.44662,10.009139 6.27272,13.110928 -7.80836,2.76294 -19.28662,14.466338 -19.28662,35.110171 l 59.864,0 c 0,-20.643833 -11.47827,-32.347231 -19.28661,-35.110171 3.82608,-3.101789 6.2727,-7.819639 6.2727,-13.110928 0,-6.281778 -3.4617,-11.72946 -8.53713,-14.648792 1.27538,-1.746387 2.03018,-3.883755 2.03018,-6.203581 0,-5.760468 -4.65899,-10.426187 -10.41113,-10.426187 z"
     inkscape:connector-curvature="0"
     inkscape:export-xdpi="90"
     inkscape:export-ydpi="90" />
  <g
     id="g3588"
     style="opacity:1;fill-opacity:1;fill-rule:evenodd;stroke:#000000;stroke-width:0.65860879;stroke-linecap:round;stroke-linejoin:round;stroke-miterlimit:4;stroke-dasharray:none;stroke-opacity:1"
     transform="matrix(2.2748052,0,0,2.280254,314.8295,-4.163383)"
     inkscape:export-xdpi="90"
     inkscape:export-ydpi="90">
    <g
       id="g3590"
       style="fill:#000000;stroke:none">
      <circle
         id="circle3592"
         r="2.75"
         cy="12"
         cx="6" />
      <circle
         id="circle3594"
         r="2.75"
         cy="9"
         cx="14" />
      <circle
         id="circle3596"
         r="2.75"
         cy="8"
         cx="22.5" />
      <circle
         id="circle3598"
         r="2.75"
         cy="9"
         cx="31" />
      <circle
         id="circle3600"
         r="2.75"
         cy="12"
         cx="39" />
    </g>
    <path
       id="path3602"
       style="stroke:#000000;stroke-width:0.65860879;stroke-linecap:butt"
       d="m 9,26 c 8.5,-1.5 21,-1.5 27,0 L 38.5,13.5 31,25 30.7,10.9 25.5,24.5 22.5,10 19.5,24.5 14.3,10.9 14,25 6.5,13.5 9,26 Z"
       inkscape:connector-curvature="0" />
    <path
       id="path3604"
       style="stroke-width:0.65860879;stroke-linecap:butt"
       d="m 9,26 c 0,2 1.5,2 2.5,4 1,1.5 1,1 0.5,3.5 -1.5,1 -1.5,2.5 -1.5,2.5 -1.5,1.5 0.5,2.5 0.5,2.5 6.5,1 16.5,1 23,0 0,0 1.5,-1 0,-2.5 0,0 0.5,-1.5 -1,-2.5 -0.5,-2.5 -0.5,-2 0.5,-3.5 1,-2 2.5,-2 2.5,-4 -8.5,-1.5 -18.5,-1.5 -27,0 z"
       inkscape:connector-curvature="0" />
    <path
       id="path3606"
       style="fill:none;stroke:#000000;stroke-width:0.65860879;stroke-linecap:butt"
       d="m 11,38.5 a 35,35 1 0 0 23,0"
       inkscape:connector-curvature="0" />
    <path
       id="path3608"
       style="fill:none;stroke:#ffffff;stroke-width:0.65860879"
       d="m 11,29 a 35,35 1 0 1 23,0"
       inkscape:connector-curvature="0" />
    <path
       id="path3610"
       style="fill:none;stroke:#ffffff;stroke-width:0.65860879"
       d="m 12.5,31.5 20,0"
       inkscape:connector-curvature="0" />
    <path
       id="path3612"
       style="fill:none;stroke:#ffffff;stroke-width:0.65860879"
       d="m 11.5,34.5 a 35,35 1 0 0 22,0"
       inkscape:connector-curvature="0" />
    <path
       id="path3614"
       style="fill:none;stroke:#ffffff;stroke-width:0.65860879"
       d="m 10.5,37.5 a 35,35 1 0 0 24,0"
       inkscape:connector-curvature="0" />
  </g>
  <g
     id="g3638"
     style="opacity:1;fill:#ffffff;fill-opacity:1;fill-rule:evenodd;stroke:#000000;stroke-width:0.63761109;stroke-linecap:round;stroke-linejoin:round;stroke-miterlimit:4;stroke-dasharray:none;stroke-opacity:1"
     transform="matrix(2.3496962,0,0,2.3553696,204.91136,-1.1413071)"
     inkscape:export-xdpi="90"
     inkscape:export-ydpi="90">
    <path
       id="path3640"
       transform="translate(-1,-1)"
       d="m 9,13 a 2,2 0 1 1 -4,0 2,2 0 1 1 4,0 z"
       inkscape:connector-curvature="0"
       style="stroke-width:0.63761109" />
    <path
       id="path3642"
       transform="translate(15.5,-5.5)"
       d="m 9,13 a 2,2 0 1 1 -4,0 2,2 0 1 1 4,0 z"
       inkscape:connector-curvature="0"
       style="stroke-width:0.63761109" />
    <path
       id="path3644"
       transform="translate(32,-1)"
       d="m 9,13 a 2,2 0 1 1 -4,0 2,2 0 1 1 4,0 z"
       inkscape:connector-curvature="0"
       style="stroke-width:0.63761109" />
    <path
       id="path3646"
       transform="translate(7,-4.5)"
       d="m 9,13 a 2,2 0 1 1 -4,0 2,2 0 1 1 4,0 z"
       inkscape:connector-curvature="0"
       style="stroke-width:0.63761109" />
    <path
       id="path3648"
       transform="translate(24,-4)"
       d="m 9,13 a 2,2 0 1 1 -4,0 2,2 0 1 1 4,0 z"
       inkscape:connector-curvature="0"
       style="stroke-width:0.63761109" />
    <path
       id="path3650"
       style="stroke-width:0.63761109;stroke-linecap:butt"
       d="m 9,26 c 8.5,-1.5 21,-1.5 27,0 l 2,-12 -7,11 0,-14 -5.5,13.5 -3,-15 -3,15 L 14,10.5 14,25 7,14 9,26 Z"
       inkscape:connector-curvature="0" />
    <path
       id="path3652"
       style="stroke-width:0.63761109;stroke-linecap:butt"
       d="m 9,26 c 0,2 1.5,2 2.5,4 1,1.5 1,1 0.5,3.5 -1.5,1 -1.5,2.5 -1.5,2.5 -1.5,1.5 0.5,2.5 0.5,2.5 6.5,1 16.5,1 23,0 0,0 1.5,-1 0,-2.5 0,0 0.5,-1.5 -1,-2.5 -0.5,-2.5 -0.5,-2 0.5,-3.5 1,-2 2.5,-2 2.5,-4 -8.5,-1.5 -18.5,-1.5 -27,0 z"
       inkscape:connector-curvature="0" />
    <path
       id="path3654"
       style="fill:none;stroke-width:0.63761109"
       d="M 11.5,30 C 15,29 30,29 33.5,30"
       inkscape:connector-curvature="0" />
    <path
       id="path3656"
       style="fill:none;stroke-width:0.63761109"
       d="m 12,33.5 c 6,-1 15,-1 21,0"
       inkscape:connector-curvature="0" />
  </g>
</svg>
